<svg width="36" height="36" viewBox="0 0 36 36" fill="none" xmlns="http://www.w3.org/2000/svg">
<g clip-path="url(#clip0_66_2999)">
<rect width="36" height="36" rx="9" fill="white"/>
<path d="M0 0H100V100H0V0Z" fill="white"/>
<path d="M19.5764 17.5L21.9158 20.0729L25.0615 22.0072L25.61 17.5159L25.0615 13.1248L21.8555 14.8242L19.5764 17.5Z" fill="#00832D"/>
<path d="M6 21.5901V25.4165C6 26.2913 6.73637 26.9998 7.64552 26.9998H11.6222L12.445 24.1076L11.6222 21.5901L8.89338 20.7985L6 21.5901Z" fill="#0066DA"/>
<path d="M11.6222 8L6 13.4097L8.89338 14.2013L11.6222 13.4097L12.4313 10.9265L11.6222 8Z" fill="#E94235"/>
<path d="M11.6222 13.4097H6L6 21.5901H11.6222V13.4097Z" fill="#2684FC"/>
<path d="M28.6534 10.2907L25.0607 13.1248V22.0073L28.6699 24.8546C29.2101 25.261 30 24.8902 30 24.2292V10.9029C30 10.234 29.1923 9.86715 28.6534 10.2907ZM19.5756 17.5001V21.5903L11.6222 21.5901V26.9998L23.4152 27C24.3243 27 25.0607 26.2915 25.0607 25.4167V22.0073L19.5756 17.5001Z" fill="#00AC47"/>
<path d="M23.4152 8H11.6222V13.4097L19.5756 13.4097L19.5756 17.5001L25.0607 13.1273V9.58332C25.0607 8.70854 24.3243 8 23.4152 8Z" fill="#FFBA00"/>
</g>
<defs>
<clipPath id="clip0_66_2999">
<rect width="36" height="36" rx="9" fill="white"/>
</clipPath>
</defs>
</svg>
