<svg width="364" height="364" viewBox="0 0 364 364" fill="none" xmlns="http://www.w3.org/2000/svg">
<g filter="url(#filter0_d_55_2869)">
<circle cx="182" cy="182" r="172" fill="#EFFFFD"/>
</g>
<g filter="url(#filter1_d_55_2869)">
<path d="M302.057 158.114L292.859 161.209L304.854 139.898L312.696 108.276L313.236 106.845C313.792 105.372 314.658 104.035 315.776 102.925L316.015 102.687C316.871 101.836 317.87 101.141 318.965 100.633C320.154 100.082 321.448 99.797 322.758 99.797H324.498C325.977 99.797 327.148 101.046 327.055 102.521L325.844 121.566L324.46 135.086L323.197 142.075C322.964 143.365 322.521 144.608 321.887 145.755C320.853 147.622 319.34 149.18 317.504 150.268L311.792 153.652C308.713 155.477 305.45 156.973 302.057 158.114Z" fill="#E6A991"/>
<path d="M309.375 91.857L309.515 91.8221C310.654 91.5392 311.817 92.1928 312.167 93.3132C313.13 96.3957 313.619 99.6065 313.619 102.836V103.922L312.005 128.67L299.318 136.232V102.477C299.318 99.627 300.625 96.9344 302.863 95.1706L303.282 94.8405C305.079 93.4252 307.155 92.4082 309.375 91.857Z" fill="#E5A991"/>
<path d="M235.886 83.9857L223.879 90.4689C217.747 93.7793 211.35 96.5712 204.753 98.8155L197.827 101.172L183.757 107.588L176.717 111.453C169.739 115.284 163.144 119.772 157.02 124.857L150.773 130.045L129.782 148.606L118.941 156.856L149.158 216.435L152.157 214.372L177.76 194.895L193.967 185.265C198.759 182.419 204.229 180.916 209.802 180.916H216.742H237.732L252.725 180.229C257.776 179.316 262.681 177.727 267.308 175.503L267.487 175.417L280.865 167.626L285.461 165.703C291.095 163.347 296.146 159.79 300.265 155.282L305.315 149.752L326.767 118.817L333.033 109.09C333.663 108.111 333.44 106.812 332.518 106.1C332.222 105.871 331.898 105.68 331.554 105.531L328.982 104.42C327.521 103.789 325.946 103.463 324.354 103.463C322.027 103.463 319.762 104.214 317.896 105.605L317.4 105.974C315.344 107.506 313.423 109.21 311.657 111.067L302.547 120.65L290.553 133.482L279.02 142.648L271.178 146.773L261.75 150.16C260.815 150.497 259.828 150.668 258.834 150.668H256.369C252.303 150.668 248.293 149.727 244.652 147.919L239.007 144.525C236.944 143.284 235.104 141.656 233.612 139.766C230.705 136.081 228.25 131.99 226.379 127.686C225.391 125.414 225.501 122.814 226.677 120.633L228.145 117.912C230.487 113.569 234.049 110.007 238.392 107.664L247.881 102.547L256.595 97.1793C258.459 96.0315 260.097 94.553 261.428 92.8164L261.496 92.7282C262.546 91.3585 263.184 89.7177 263.335 87.9982C263.487 86.2585 263.279 84.506 262.723 82.8504L261.72 79.8609L260.73 78.057C260.469 77.5816 260.141 77.1462 259.756 76.764C258.268 75.2857 256.085 74.7502 254.082 75.3721L253.647 75.5071L235.886 83.9857Z" fill="#F7BBA3"/>
<path d="M259.183 78.7151L258.492 76.1945L257.108 75.2779L254.801 75.0487L251.341 76.6528L244.652 79.6317L244.883 79.8609L248.804 85.5896L251.572 84.673L257.569 81.2358L259.183 78.7151Z" fill="#E6A1A1"/>
<path d="M312.701 103.395L313.152 103.14C313.309 103.05 313.454 102.941 313.582 102.813L313.619 102.776V101.859L313.389 99.3387L313.158 98.1929L312.466 94.2974L312.438 94.1836C312.304 93.6524 312.079 93.1482 311.774 92.6933C311.624 92.3958 311.38 92.154 311.082 92.0059C310.779 91.8551 310.445 91.7767 310.106 91.7767H309.695C309.442 91.7767 309.237 91.9819 309.237 92.235V95.4431L309.698 100.255L310.308 103.08C310.359 103.318 310.532 103.51 310.762 103.587C311.406 103.8 312.111 103.73 312.701 103.395Z" fill="#E6A1A1"/>
<path d="M326.536 111.484L331.38 105.526L331.687 105.648C332.239 105.867 332.711 106.248 333.041 106.74L333.322 107.159C333.41 107.289 333.456 107.443 333.456 107.6C333.456 108.34 333.24 109.063 332.835 109.682L326.998 118.587L325.844 118.129L324.461 117.212L323.999 115.838L326.536 111.484Z" fill="#E6A1A1"/>
<path d="M61.0449 231.559L139.076 187.333L128.919 165.998C123.68 154.991 110.201 150.744 99.5977 156.758L61.0449 178.625V231.559Z" fill="#73B17A"/>
<path d="M61.0449 231.559L139.008 187.333L149.608 209.396C154.504 219.588 150.452 231.827 140.44 237.083L61.0449 278.764V231.559Z" fill="#5AA561"/>
<ellipse cx="268.179" cy="238.662" rx="6.22784" ry="5.95792" fill="url(#paint0_linear_55_2869)"/>
<ellipse cx="258.031" cy="223.08" rx="6.22784" ry="5.95792" fill="url(#paint1_linear_55_2869)"/>
<ellipse cx="258.031" cy="209.331" rx="6.22784" ry="5.95792" fill="url(#paint2_linear_55_2869)"/>
<ellipse cx="256.645" cy="195.582" rx="6.22784" ry="5.95792" fill="url(#paint3_linear_55_2869)"/>
<ellipse cx="255.723" cy="180.458" rx="6.22784" ry="5.95792" fill="url(#paint4_linear_55_2869)"/>
<ellipse cx="254.8" cy="165.334" rx="6.22784" ry="5.95792" fill="url(#paint5_linear_55_2869)"/>
<ellipse cx="255.723" cy="153.418" rx="6.22784" ry="5.95792" fill="url(#paint6_linear_55_2869)"/>
<ellipse cx="263.104" cy="143.794" rx="6.22784" ry="5.95792" fill="url(#paint7_linear_55_2869)"/>
<ellipse cx="275.561" cy="180.458" rx="6.22784" ry="5.95792" fill="url(#paint8_linear_55_2869)"/>
<ellipse cx="276.483" cy="194.207" rx="6.22784" ry="5.95792" fill="url(#paint9_linear_55_2869)"/>
<ellipse cx="277.405" cy="209.331" rx="6.22784" ry="5.95792" fill="url(#paint10_linear_55_2869)"/>
<ellipse cx="277.405" cy="223.08" rx="6.22784" ry="5.95792" fill="url(#paint11_linear_55_2869)"/>
<path d="M265.642 244.849H273.023L271.409 283.118H268.179L265.642 244.849Z" fill="#FDB4B4"/>
<path d="M267.948 284.034H271.408L273.484 293.2V295.033L272.561 293.888H271.408L269.794 295.033L268.871 293.888H267.948L266.795 295.033L267.948 284.034Z" fill="#C23333" stroke="#A62A2A"/>
</g>
<defs>
<filter id="filter0_d_55_2869" x="0" y="0" width="364" height="364" filterUnits="userSpaceOnUse" color-interpolation-filters="sRGB">
<feFlood flood-opacity="0" result="BackgroundImageFix"/>
<feColorMatrix in="SourceAlpha" type="matrix" values="0 0 0 0 0 0 0 0 0 0 0 0 0 0 0 0 0 0 127 0" result="hardAlpha"/>
<feOffset/>
<feGaussianBlur stdDeviation="5"/>
<feComposite in2="hardAlpha" operator="out"/>
<feColorMatrix type="matrix" values="0 0 0 0 0 0 0 0 0 0 0 0 0 0 0 0 0 0 0.5 0"/>
<feBlend mode="normal" in2="BackgroundImageFix" result="effect1_dropShadow_55_2869"/>
<feBlend mode="normal" in="SourceGraphic" in2="effect1_dropShadow_55_2869" result="shape"/>
</filter>
<filter id="filter1_d_55_2869" x="40.0449" y="23.0487" width="322.411" height="273.403" filterUnits="userSpaceOnUse" color-interpolation-filters="sRGB">
<feFlood flood-opacity="0" result="BackgroundImageFix"/>
<feColorMatrix in="SourceAlpha" type="matrix" values="0 0 0 0 0 0 0 0 0 0 0 0 0 0 0 0 0 0 127 0" result="hardAlpha"/>
<feOffset dx="4" dy="-27"/>
<feGaussianBlur stdDeviation="12.5"/>
<feComposite in2="hardAlpha" operator="out"/>
<feColorMatrix type="matrix" values="0 0 0 0 0 0 0 0 0 0 0 0 0 0 0 0 0 0 0.25 0"/>
<feBlend mode="normal" in2="BackgroundImageFix" result="effect1_dropShadow_55_2869"/>
<feBlend mode="normal" in="SourceGraphic" in2="effect1_dropShadow_55_2869" result="shape"/>
</filter>
<linearGradient id="paint0_linear_55_2869" x1="274.407" y1="235.454" x2="268.418" y2="237.541" gradientUnits="userSpaceOnUse">
<stop stop-color="#FE5353"/>
<stop offset="1" stop-color="#4A1A1A"/>
</linearGradient>
<linearGradient id="paint1_linear_55_2869" x1="264.258" y1="219.872" x2="258.27" y2="221.959" gradientUnits="userSpaceOnUse">
<stop stop-color="#FE5353"/>
<stop offset="1" stop-color="#4A1A1A"/>
</linearGradient>
<linearGradient id="paint2_linear_55_2869" x1="264.258" y1="206.123" x2="258.27" y2="208.21" gradientUnits="userSpaceOnUse">
<stop stop-color="#FE5353"/>
<stop offset="1" stop-color="#4A1A1A"/>
</linearGradient>
<linearGradient id="paint3_linear_55_2869" x1="262.873" y1="192.374" x2="256.884" y2="194.461" gradientUnits="userSpaceOnUse">
<stop stop-color="#FE5353"/>
<stop offset="1" stop-color="#4A1A1A"/>
</linearGradient>
<linearGradient id="paint4_linear_55_2869" x1="261.951" y1="177.25" x2="255.963" y2="179.337" gradientUnits="userSpaceOnUse">
<stop stop-color="#FE5353"/>
<stop offset="1" stop-color="#4A1A1A"/>
</linearGradient>
<linearGradient id="paint5_linear_55_2869" x1="261.028" y1="162.126" x2="255.039" y2="164.213" gradientUnits="userSpaceOnUse">
<stop stop-color="#FE5353"/>
<stop offset="1" stop-color="#4A1A1A"/>
</linearGradient>
<linearGradient id="paint6_linear_55_2869" x1="261.951" y1="150.21" x2="255.963" y2="152.297" gradientUnits="userSpaceOnUse">
<stop stop-color="#FE5353"/>
<stop offset="1" stop-color="#4A1A1A"/>
</linearGradient>
<linearGradient id="paint7_linear_55_2869" x1="269.332" y1="140.586" x2="263.343" y2="142.673" gradientUnits="userSpaceOnUse">
<stop stop-color="#FE5353"/>
<stop offset="1" stop-color="#4A1A1A"/>
</linearGradient>
<linearGradient id="paint8_linear_55_2869" x1="281.789" y1="177.25" x2="275.8" y2="179.337" gradientUnits="userSpaceOnUse">
<stop stop-color="#FE5353"/>
<stop offset="1" stop-color="#4A1A1A"/>
</linearGradient>
<linearGradient id="paint9_linear_55_2869" x1="282.711" y1="190.999" x2="276.722" y2="193.086" gradientUnits="userSpaceOnUse">
<stop stop-color="#FE5353"/>
<stop offset="1" stop-color="#4A1A1A"/>
</linearGradient>
<linearGradient id="paint10_linear_55_2869" x1="283.632" y1="206.123" x2="277.644" y2="208.21" gradientUnits="userSpaceOnUse">
<stop stop-color="#FE5353"/>
<stop offset="1" stop-color="#4A1A1A"/>
</linearGradient>
<linearGradient id="paint11_linear_55_2869" x1="283.632" y1="219.872" x2="277.644" y2="221.959" gradientUnits="userSpaceOnUse">
<stop stop-color="#FE5353"/>
<stop offset="1" stop-color="#4A1A1A"/>
</linearGradient>
</defs>
</svg>
