<svg width="477" height="233" viewBox="0 0 477 233" fill="none" xmlns="http://www.w3.org/2000/svg">
<g filter="url(#filter0_d_55_2833)">
<path d="M54.9099 107.992L58.2386 114.378L56.1046 106.235C57.5234 103.785 57.1531 96.6096 55.2738 99.4292C52.3264 103.851 56.428 103.749 50.1207 103.756C43.8134 103.762 54.9099 107.992 54.9099 107.992Z" fill="#7E7E7E"/>
<path d="M433.817 123.476C365.015 102.655 132.355 105.371 75.3217 105.371C34.6633 105.371 2.89848 206.763 22.8148 206.763C45.2288 206.763 344.193 223.964 384.931 213.1C408.695 206.763 455.98 130.184 433.817 123.476Z" fill="#AAAAAA"/>
<ellipse cx="221.101" cy="156.405" rx="164.573" ry="6.68887" fill="#9E9E9E"/>
<path d="M235.312 84.6023C233.406 73.1698 279.757 67.4543 299.903 64.6755C316.576 69.4391 318.957 93.8524 313.301 96.5319C308.775 98.6755 280.684 97.1329 266.492 94.8503C275.027 110.034 290.733 138.749 290.971 142.084C291.21 145.418 281.544 147.046 276.681 147.443C260.387 134.97 237.217 96.0348 235.312 84.6023Z" fill="#BABABA"/>
<path d="M305.464 139.327C289.648 137.042 279.66 138.643 276.997 143.873C280.493 147.48 325.173 149.796 325.173 146.937C325.173 144.442 320.5 141.499 305.464 139.327Z" fill="#F3BDB6"/>
<path d="M88.9729 95.5644C94.8991 98.487 99.7639 97.5069 103.612 97.82C106.692 104.257 101.111 116.797 98.5829 120.067C95.8825 118.562 89.4507 115.653 85.3266 116.061C80.1715 116.572 68.695 142.344 71.4811 145.473C74.2672 148.603 75.2997 154.058 68.2429 150.142C61.186 146.225 66.0714 96.8752 73.2194 92.3064C78.1533 89.1529 82.8146 92.5273 88.9729 95.5644Z" fill="#F3BDB6"/>
<path d="M73.4951 95.3413C79.5806 97.9159 84.3804 96.6559 88.2406 96.7456C91.6881 102.994 86.8416 115.835 84.5074 119.247C81.7244 117.9 75.135 115.369 71.0414 116.015C65.9245 116.823 55.9593 143.217 58.9218 146.179C61.8844 149.142 63.231 154.528 55.9593 151.027C48.6876 147.526 50.7078 97.9757 57.5794 93.0008C62.3224 89.567 67.1713 92.6659 73.4951 95.3413Z" fill="#F8CCC7"/>
<path d="M176.762 0.772912C218.429 -6.58018 297.088 40.1249 329.973 73.2139C337.326 89.1456 308.925 109.558 287.479 109.558C269.349 109.558 233.938 104.605 212.071 88.016C220.667 108.961 224.699 133.03 201.62 144.486C164.036 163.141 83.4308 157.354 77.9159 144.486C73.5041 134.191 83.0221 106.29 88.3327 93.6267L148.607 106.32C148.607 106.32 143.214 95.8374 132.776 73.2139C122.338 50.5904 135.094 8.126 176.762 0.772912Z" fill="#C2C2C2"/>
<path d="M255.437 74.4164C268.694 82.6116 276.588 98.7883 310.875 91.771C319.902 89.9236 311.932 108.419 285.675 109.694C267.621 110.57 222.03 101.095 210.768 86.7326C210.857 87.107 210.944 87.4818 211.028 87.8571C211.152 87.6554 211.49 88.1969 212.185 90.0724C216.696 102.235 232.593 138.059 191.541 150.013C150.047 162.097 82.4974 157.831 77.916 144.485C77.916 144.485 175.3 156.272 197.723 134.035C214.069 117.826 214.319 102.48 211.028 87.8571C210.773 88.2742 211.431 91.8671 211.735 93.4184C211.894 94.2328 211.955 94.4845 211.735 93.4184C211.52 92.3785 211.036 90.0847 210.115 85.836C208.487 83.4215 207.838 80.8758 208.451 78.2237C203.265 60.7392 219.447 52.1682 255.437 74.4164Z" fill="#BDBCBC"/>
<path d="M221.165 86.1389C219.259 74.7064 260.883 66.855 281.029 64.0762C315.984 64.0762 309.575 96.387 299.154 98.0685C294.21 98.8662 266.537 98.6695 252.345 96.387C260.88 111.571 276.586 140.286 276.824 143.62C277.063 146.955 267.396 148.582 262.534 148.979C246.24 136.507 223.07 97.5715 221.165 86.1389Z" fill="#CECECE"/>
<path d="M293.684 144.7C276.552 142.416 265.734 144.016 262.849 149.246C266.636 152.853 315.031 155.17 315.031 152.31C315.031 149.815 309.97 146.872 293.684 144.7Z" fill="#F8CCC7"/>
<path d="M352.542 93.9357C348.281 92.8143 334.723 79.7934 327.715 73.3455C314.931 71.7755 306.656 93.9457 308.712 100.3C312.637 103.384 325.63 105.439 319.799 115.083C312.51 127.138 313.855 137.248 318.06 139.21C322.265 141.173 333.085 150.693 335.608 152.655C338.131 154.618 344.132 147.62 352.542 149.583C381.877 156.428 385.062 117.063 383.38 108.092C381.698 99.1211 357.869 95.3374 352.542 93.9357Z" fill="#F8CCC7"/>
<path d="M380.838 100.97C388.472 106.938 377.657 133.181 371.296 145.557V116.584C371.296 113.982 354.12 110.512 350.304 112.594C347.25 114.259 350.12 109.725 346.881 107.816C351.461 109.75 358.758 110.181 355.926 104.863C354.12 101.471 346.776 100.305 341.629 104.064C345.157 101.404 340.866 95.9731 337.812 92.642C333.995 88.4782 339.2 84.1409 341.629 84.1409C343.148 84.1409 348.604 88.4166 351.883 91.4497C351.164 89.3756 351.199 87.1207 352.559 87.9577C354.814 89.3457 371.296 93.5095 380.838 100.97Z" fill="#0C4271"/>
<path d="M366.359 147.296C365.047 144.071 368.392 111.171 370.094 94.0951C377.14 93.2041 390.756 93.4958 395.464 98.5519C401.35 104.872 393.337 143.884 391.985 146.599C390.633 149.313 367.999 151.327 366.359 147.296Z" fill="#CCC9C9"/>
<path d="M393.751 101.637C389.346 115.179 387.779 144.232 389.346 145.51C391.306 147.107 396.664 105.066 393.751 101.637Z" fill="#B4B4B4"/>
<path d="M309.467 91.4847C312.616 96.1582 318.798 104.906 320.481 107.751C320.552 107.863 320.611 107.966 320.658 108.059C320.84 108.385 320.93 108.591 320.909 108.651C320.873 108.756 320.902 108.534 320.658 108.059C320.607 107.966 320.547 107.863 320.481 107.751C319.797 106.677 317.916 104.762 312.594 102.487C311.495 101.941 310.332 101.334 308.737 100.394C308.115 98.1082 308.393 94.8161 309.467 91.4847Z" fill="#F3BDB6"/>
<path d="M351.759 107.518C353.193 107.452 355.863 106.954 355.072 105.491C354.083 103.661 350.638 102.815 349.451 102.815C346.729 102.652 344.687 103.39 344.687 104.353C344.687 105.824 347.5 108.317 349.676 105.844C351.852 103.372 345.424 103.629 346.32 104.923C346.872 105.722 348.121 105.701 348.121 104.923" stroke="#F3BDB6" stroke-linecap="round"/>
<path d="M13.367 206.27L19.6262 202.709L11.5673 205.141C9.06712 203.813 1.91007 204.447 4.7968 206.221C9.32411 209.004 9.07149 204.909 9.30972 211.212C9.54795 217.515 13.367 206.27 13.367 206.27Z" fill="#7E7E7E"/>
<path d="M15.7743 172.868L21.8679 176.706L15.9207 170.748C15.9116 167.917 11.9752 161.907 11.7731 165.289C11.4562 170.594 14.9473 168.439 9.50293 171.623C4.05852 174.807 15.7743 172.868 15.7743 172.868Z" fill="#7E7E7E"/>
<path d="M25.9389 148.442L32.4676 145.403L24.2373 147.169C21.8537 145.642 14.6688 145.69 17.4013 147.694C21.6866 150.837 21.7687 146.735 21.4923 153.036C21.2159 159.337 25.9389 148.442 25.9389 148.442Z" fill="#7E7E7E"/>
<path d="M37.9628 124.541L44.6614 127.185L37.7142 122.431C37.1811 119.651 32.2001 114.473 32.6276 117.834C33.2982 123.106 36.33 120.342 31.5693 124.479C26.8085 128.616 37.9628 124.541 37.9628 124.541Z" fill="#7E7E7E"/>
<path d="M392.16 216.788L390.518 209.776L394.211 217.34C396.885 218.272 401.284 223.952 398.021 223.041C392.902 221.612 396.078 219.013 391.293 223.123C386.508 227.232 392.16 216.788 392.16 216.788Z" fill="#7E7E7E"/>
<path d="M414.508 196.441L410.523 190.442L416.623 196.243C419.454 196.183 425.558 199.973 422.182 200.257C416.886 200.702 418.956 197.16 415.904 202.68C412.853 208.2 414.508 196.441 414.508 196.441Z" fill="#7E7E7E"/>
<path d="M425.698 175.48L418.604 174.237L427.011 173.81C428.917 171.717 435.869 169.901 433.75 172.545C430.426 176.691 429.283 172.75 431.183 178.764C433.084 184.779 425.698 175.48 425.698 175.48Z" fill="#7E7E7E"/>
<path d="M440.716 153.876L434 151.277L442.329 152.494C444.606 150.812 451.778 150.383 449.185 152.564C445.118 155.984 444.763 151.896 445.457 158.165C446.151 164.434 440.716 153.876 440.716 153.876Z" fill="#7E7E7E"/>
<path d="M441.275 127.348L434.472 124.985L442.839 125.91C445.055 124.149 452.208 123.469 449.693 125.739C445.748 129.3 445.251 125.227 446.164 131.468C447.077 137.709 441.275 127.348 441.275 127.348Z" fill="#7E7E7E"/>
</g>
<defs>
<filter id="filter0_d_55_2833" x="0.12207" y="0" width="454.1" height="232.08" filterUnits="userSpaceOnUse" color-interpolation-filters="sRGB">
<feFlood flood-opacity="0" result="BackgroundImageFix"/>
<feColorMatrix in="SourceAlpha" type="matrix" values="0 0 0 0 0 0 0 0 0 0 0 0 0 0 0 0 0 0 127 0" result="hardAlpha"/>
<feOffset dy="4"/>
<feGaussianBlur stdDeviation="2"/>
<feComposite in2="hardAlpha" operator="out"/>
<feColorMatrix type="matrix" values="0 0 0 0 0 0 0 0 0 0 0 0 0 0 0 0 0 0 0.25 0"/>
<feBlend mode="normal" in2="BackgroundImageFix" result="effect1_dropShadow_55_2833"/>
<feBlend mode="normal" in="SourceGraphic" in2="effect1_dropShadow_55_2833" result="shape"/>
</filter>
</defs>
</svg>
